<?xml version="1.0" encoding="UTF-8"?><svg id="Layer_2" xmlns="http://www.w3.org/2000/svg" width="883.44" height="875.44" viewBox="0 0 883.44 875.44"><defs><style>.cls-1{fill:#000c07;}</style></defs><g id="Layer_1-2"><path class="cls-1" d="M860.96,118.99L29.89,.27C14.12-1.99,0,10.25,0,26.19V106.02c0,9.92,5.61,18.98,14.48,23.43l237.94,118.97L14.48,367.38c-8.87,4.44-14.48,13.5-14.48,23.43v458.44c0,15.94,14.12,28.18,29.89,25.93l831.07-118.72c12.9-1.84,22.49-12.89,22.49-25.93v-210.82c0-11.27-7.21-21.28-17.91-24.85l-360.71-120.24h352.43c14.46,0,26.19-11.73,26.19-26.19V144.92c0-13.03-9.58-24.08-22.49-25.93Z"/></g></svg>