<svg xmlns="http://www.w3.org/2000/svg" viewBox="0 0 572 143.44"><defs><style>.a{fill:#1f2950;}</style></defs><path class="a" d="M144.41,60.11c-2.58,0-6.09-.56-6.09-4.44s3.14-4.43,6.09-4.43h12.2c4.62,0,7.94.46,11.45,4s3.88,6.1,4,10.54L173,95.87c.09,2.59-1.2,5.18-4.16,5.18a4.52,4.52,0,0,1-4.53-4.44l-6.09,3.14c-2.5,1.3-2.59,1.3-5.45,1.3h-8.5c-4,0-6.84-.47-10.07-3.14-3.69-3-4.62-6.29-4.62-10.91V83.12c0-4.25,1-6.93,4.34-9.89,3.05-2.68,6.47-3.33,10.35-3.33h19v-2c0-6.65-1.48-7.76-7.85-7.76Zm-.09,18.67c-2.4,0-5.91.64-5.91,3.88v5.91c0,3,3.6,3.61,5.73,3.61h9.79l9.79-5.09V85.15c0-4.9-1.39-6.37-6.28-6.37Z"/><path class="a" d="M204.92,69.17V95c0,3-.65,6.1-4.44,6.1s-4.43-3-4.43-6.1V57.8c0-3.24.37-6.56,4.43-6.56s4.44,3.32,4.44,6.47v1.2l7.2-4.72c2.31-1.47,4.81-2.95,7.67-2.95h6.56a11.19,11.19,0,0,1,8.22,3.23c4,3.42,3.79,7.21,4,12l.93,27.91c.09,3.15-.37,6.66-4.35,6.66-3.6,0-4.34-3-4.43-6l-.92-27.35c-.19-5.46-.65-7.58-6-7.58h-2.95a5.41,5.41,0,0,0-2.78.83Z"/><path class="a" d="M277.43,60.11c-2.59,0-6.1-.56-6.1-4.44s3.14-4.43,6.1-4.43h12.19c4.62,0,7.95.46,11.46,4s3.88,6.1,4,10.54L306,95.87c.09,2.59-1.2,5.18-4.15,5.18a4.52,4.52,0,0,1-4.53-4.44l-6.1,3.14c-2.49,1.3-2.58,1.3-5.45,1.3h-8.5c-4,0-6.83-.47-10.07-3.14-3.69-3-4.61-6.29-4.61-10.91V83.12c0-4.25,1-6.93,4.34-9.89,3.05-2.68,6.46-3.33,10.34-3.33h19v-2c0-6.65-1.48-7.76-7.85-7.76Zm-.09,18.67c-2.41,0-5.92.64-5.92,3.88v5.91c0,3,3.61,3.61,5.73,3.61h9.79l9.79-5.09V85.15c0-4.9-1.38-6.37-6.28-6.37Z"/><path class="a" d="M344.21,60.11c-1.85,0-5-.37-5,2.49,0,1.48,1.11,2,2.41,2.59L363.8,75.26c5.72,2.59,8.68,6.2,8.68,12.57,0,9-6.1,13.22-14.6,13.22H344.21c-4.62,0-7.76-.19-11.08-2.78-1.67-1.29-4.07-3-4.07-5.17a4.54,4.54,0,0,1,4.62-4.44,4.3,4.3,0,0,1,3.42,1.57c1.57,1.76,4.34,2,7.11,2h12c3.14,0,7.39.27,7.39-4.9,0-2.13-2.59-3.51-4.62-4.44l-20.87-9.52c-4.9-2.21-7.76-5.08-7.76-10.81,0-7,5.54-11.27,12.19-11.27H357.7c4.89,0,6.93.27,10.25,3,1.67,1.38,3.51,2.49,3.51,5a4.51,4.51,0,0,1-4.52,4.43,4.7,4.7,0,0,1-3.79-1.85c-1.48-1.57-3-1.75-5.45-1.75Z"/><path class="a" d="M411.83,101.05c-3.7,0-5.18,0-7.95-2.41l-3.78-3.32c-3.51-3.14-4.53-5.18-4.53-10V68.24c0-4.71.65-7.48,4.34-10.63l3.14-2.68c4.16-3.6,6.19-3.69,9.79-3.69H421c4.34,0,6.38.46,9.79,3.23l3.61,2.87C438.43,60.57,439,64,439,68.89V76c0,5.09-.84,6.56-6.1,6.56H404.44v3a4.33,4.33,0,0,0,1.29,2.59l2.22,2.4c1.2,1.3,2.95,1.67,5.91,1.67h19c3,0,6.1.64,6.1,4.43s-3.51,4.44-6.1,4.44Zm-7.39-27.36h25.68V68.33c0-1.66.09-3-1.11-4.16l-3.42-3c-1.11-1-2.86-1.11-4.25-1.11h-7.48a7.14,7.14,0,0,0-4.53,1l-3,2.21c-1.11.83-1.85,1.48-1.85,4.07Z"/><path class="a" d="M478.34,101.05c-3.7,0-5.18,0-7.95-2.41l-3.79-3.32c-3.51-3.14-4.52-5.18-4.52-10V68.24c0-4.71.64-7.48,4.34-10.63l3.14-2.68c4.16-3.6,6.19-3.69,9.79-3.69h8.13c4.34,0,6.37.46,9.79,3.23l3.6,2.87c4.07,3.23,4.62,6.65,4.62,11.55V76c0,5.09-.83,6.56-6.09,6.56H471v3a4.33,4.33,0,0,0,1.29,2.59l2.22,2.4c1.2,1.3,3,1.67,5.91,1.67h19c3,0,6.09.64,6.09,4.43s-3.51,4.44-6.09,4.44ZM471,73.69h25.68V68.33c0-1.66.09-3-1.11-4.16l-3.42-3c-1.11-1-2.86-1.11-4.25-1.11h-7.48a7.13,7.13,0,0,0-4.53,1l-3,2.21c-1.11.83-1.84,1.48-1.84,4.07Z"/><path class="a" d="M528.58,57.8c0-3.24.37-6.56,4.44-6.56,3.51,0,4.43,2.95,4.43,5.91v3.61L544.38,55c2.49-2,5.08-3.79,7.85-3.79h7.11A11.72,11.72,0,0,1,568,54.75a13,13,0,0,1,4,10.07c0,3.05-.55,6.19-4.34,6.19-3.23,0-4.53-2.58-4.53-5.45a5.82,5.82,0,0,0-.92-3.88c-1.11-1.57-3.23-1.57-5.36-1.57h-2.59c-1.66,0-2.86.83-4.43,2.12L537.45,72.49V95c0,3-.64,6.1-4.43,6.1s-4.44-3-4.44-6.1Z"/><path class="a" d="M95.38,67.51,88.75,62a4.88,4.88,0,0,0-3-1.56h-2.3c-1.29,0-2.86,1.66-3.78,2.58l-5.52,5.24C72.28,70,71.64,71,71.64,72.94v8.65a5.36,5.36,0,0,0,1.29,3.78l6.71,6.35c1.29,1.29,2.67,2.49,3.78,2.49h2.3a4.85,4.85,0,0,0,3-1.57l6.63-5.52a4.51,4.51,0,0,0,1.84-3.87V71.37A4.49,4.49,0,0,0,95.38,67.51Z"/><path class="a" d="M0,23.91V143.44H119.53V23.91ZM106.06,82.05c0,6.36-.46,8.75-5.62,12.8L95.1,99.09c-1.84,1.47-4.69,4-7.08,4H82c-4,0-5.8-2.58-8.65-5.25l-1.75-1.66v17.27c0,3-.65,6.08-4.42,6.08s-4.42-3-4.42-6.08V58.12c0-3.14.37-6.54,4.42-6.54,3.59,0,4.42,2.85,4.42,5.8v1.1l1.75-1.56c2.3-2,5.79-5.34,8.28-5.34h6.07c2.12,0,5,2.21,7.36,4.05l5.34,4.14c5.16,4,5.62,6.54,5.62,12.8Z"/><polygon class="a" points="139 0 28.34 0 23.9 0 23.9 15.04 32.77 15.04 32.77 8.87 134.57 8.87 134.57 42.37 143.44 42.37 143.44 0 139 0"/><rect class="a" x="128.42" y="110.65" width="15" height="8.87"/></svg>