<svg xmlns="http://www.w3.org/2000/svg" viewBox="0 0 400 100" fill="#00A3E0">
  <path d="M31.5 31.8h17.9c10.9 0 18.5 7.3 18.5 18.2 0 10.9-7.6 18.2-18.5 18.2H31.5V31.8zm10.4 8.7v19h7.1c5.4 0 8.5-3.8 8.5-9.5s-3.1-9.5-8.5-9.5h-7.1z"/>
  <path d="M73.3 31.8h10.1v27.7h17v8.7H73.3V31.8z"/>
  <path d="M105.4 31.8h10.1v36.4h-10.1V31.8z"/>
  <path d="M125.3 31.8h10.1v27.7h17v8.7h-27.1V31.8z"/>
  <path d="M158.6 31.8h27.6v8.3h-17.4v5.4h15.3v8.3h-15.3v6.1h17.9v8.3h-28V31.8z"/>
  <path d="M193.5 31.8h10.1v36.4h-10.1V31.8z"/>
  <path d="M227.4 30.9c11.2 0 19.3 8.4 19.3 19.1 0 10.8-8.1 19.1-19.3 19.1s-19.3-8.3-19.3-19.1c0-10.7 8.2-19.1 19.3-19.1zm0 9c-5.5 0-9 4.2-9 10.1 0 5.8 3.5 10 9 10s9-4.2 9-10c0-5.9-3.5-10.1-9-10.1z"/>
  <path d="M252.4 31.8h10.1v27.7h17v8.7h-27.1V31.8z"/>
</svg>
